<?xml version="1.0" standalone="no"?><!DOCTYPE svg PUBLIC "-//W3C//DTD SVG 1.1//EN" "http://www.w3.org/Graphics/SVG/1.1/DTD/svg11.dtd"><svg t="1582374171209" class="icon" viewBox="0 0 1024 1024" version="1.1" xmlns="http://www.w3.org/2000/svg" p-id="1336" xmlns:xlink="http://www.w3.org/1999/xlink" width="128" height="128"><defs><style type="text/css"></style></defs><path d="M868.352 136.192H743.936c-15.872 0-28.672 12.8-28.672 28.672 0 15.872 12.8 28.672 28.672 28.672h124.928c18.944 0 34.304 15.36 34.304 34.304v567.296c0 18.944-15.36 34.304-34.304 34.304H155.648c-18.944 0-34.304-15.36-34.304-34.304V228.352c0-18.944 15.36-34.304 34.304-34.304H276.48c15.872 0 28.672-12.8 28.672-28.672 0-15.872-12.8-28.672-28.672-28.672h-120.832c-50.688 0-91.648 40.96-91.648 91.648v567.296c0 50.688 40.96 91.648 91.648 91.648H868.352c50.688 0 91.648-40.96 91.648-91.648V228.352c0-50.688-40.96-91.648-91.648-92.16z" p-id="1337"></path><path d="M571.392 264.704H453.12v60.416h118.272v-60.416zM453.12 206.848h118.272v-60.416H453.12v60.416z m-105.472 236.032c-17.92 20.48-17.92 53.248 0 73.728l131.584 147.968c18.432 20.48 47.616 20.48 65.536 0l131.584-147.968c17.92-20.48 17.92-53.248 0-73.728H571.392v-60.416H453.12v60.416h-105.472z" p-id="1338"></path></svg>