<?xml version="1.0" standalone="no"?><!DOCTYPE svg PUBLIC "-//W3C//DTD SVG 1.1//EN" "http://www.w3.org/Graphics/SVG/1.1/DTD/svg11.dtd"><svg t="1581750477662" class="icon" viewBox="0 0 1024 1024" version="1.1" xmlns="http://www.w3.org/2000/svg" p-id="2027" xmlns:xlink="http://www.w3.org/1999/xlink" width="128" height="128"><defs><style type="text/css"></style></defs><path d="M773.8 192.1h-650c-20 0-32.2-22.1-21.6-39L153 72.4c3.2-5 8.7-8.1 14.6-8.1H730c5.9 0 11.4 3 14.6 8.1l50.7 80.7c10.7 17-1.5 39-21.5 39zM761.1 243.9H136.5c-39.3 0-71.2 31.9-71.2 71.2v556.7c0 48.9 39.6 88.5 88.5 88.5h590.1c48.9 0 88.5-39.6 88.5-88.5V315.1c-0.1-39.4-32-71.2-71.3-71.2z m-51.4 338.9c0 9.5-7.7 17.2-17.2 17.2H288l127.8 127.8c6.7 6.7 6.7 17.6 0 24.4l-12.2 12.2c-6.7 6.7-17.6 6.7-24.4 0l-173-173c-10.1-10.1-10.1-26.5 0-36.6l167.3-167.3c6.7-6.7 17.6-6.7 24.4 0l12.2 12.2c6.7 6.7 6.7 17.6 0 24.4L285.9 548.4h406.6c9.5 0 17.2 7.7 17.2 17.2v17.2zM933.1 959.8c-15.7 0-28.5-12.7-28.5-28.5V92.4c0-15.7 12.7-28.5 28.5-28.5 15.7 0 28.5 12.7 28.5 28.5v838.9c-0.1 15.7-12.8 28.5-28.5 28.5z" p-id="2028"></path></svg>