<?xml version="1.0" standalone="no"?><!DOCTYPE svg PUBLIC "-//W3C//DTD SVG 1.1//EN" "http://www.w3.org/Graphics/SVG/1.1/DTD/svg11.dtd"><svg t="1581747502494" class="icon" viewBox="0 0 1024 1024" version="1.1" xmlns="http://www.w3.org/2000/svg" p-id="2970" xmlns:xlink="http://www.w3.org/1999/xlink" width="64" height="64"><defs><style type="text/css"></style></defs><path d="M230.064816 736.146013l-60.285015 12.623505L61.494563 911.958204l20.386306 20.274766 20.386306 20.306488 164.413584-107.588367 12.773931-59.85011 135.220704-134.324288-49.26503-49.016367L230.064816 736.146013zM819.706127 121.723296c5.666046-5.683443 14.983249-5.683443 20.705578 0 5.791913 5.686513 5.791913 14.931061 0 20.585851L603.195002 377.909026l36.998659 36.767392 237.157351-235.598856c5.78782-5.715165 15.039531-5.715165 20.757766 0 5.794983 5.65479 5.794983 14.931061 0 20.585851L660.895145 435.227476l33.220612 32.960693c0.566912-0.529049 1.134847-0.840134 1.701758-1.438769l25.103748-24.90011 0 0.034792 201.100134-199.675692c40.150442-39.824007 40.150442-104.363929 0-144.163377-40.079834-39.824007-105.137549-39.85573-145.227616 0L576.957431 296.376081l-26.364461 26.213012c-0.50449 0.591471-0.886183 1.214664-1.38658 1.743714l33.164331 33.021068L819.706127 121.723296zM478.105029 312.651766c3.396353-18.58631 4.275373-37.545104 2.576685-56.293097-4.216022-46.418192-24.161283-91.715865-59.903322-127.225613-61.47819-60.981886-151.709237-75.758428-227.212862-44.460608l122.008798 121.017214c18.306948 18.278295 18.373463 47.895847-0.066515 66.198701l-50.903344 50.479695c-18.310018 18.20871-48.193629 18.272155-66.444295 0L78.855976 203.911156c-27.116591 73.163323-11.261485 158.38017 47.888683 217.10976 32.400944 32.110325 72.739675 51.190893 114.704438 57.724703 19.885909 3.056616 40.083927 3.28072 60.032258 0.627287C428.395884 605.482091 741.819223 916.671553 741.819223 916.671553c47.559179 47.139623 124.834146 47.139623 172.341137 0 22.964014-22.830985 35.678594-53.16178 35.678594-85.429695 0-32.366152-12.71458-62.795185-35.741016-85.626169L478.105029 312.651766zM876.65414 879.375112c-24.850991 24.651446-64.934918 24.651446-89.849354 0.063445-24.665773-24.553209-24.665773-64.538899 0.063445-89.093131 24.850991-24.486694 64.934918-24.553209 89.726557 0C901.449873 814.898635 901.386428 854.884324 876.65414 879.375112z" p-id="2971"></path></svg>