<?xml version="1.0" standalone="no"?><!DOCTYPE svg PUBLIC "-//W3C//DTD SVG 1.1//EN" "http://www.w3.org/Graphics/SVG/1.1/DTD/svg11.dtd"><svg t="1581747739224" class="icon" viewBox="0 0 1024 1024" version="1.1" xmlns="http://www.w3.org/2000/svg" p-id="4074" xmlns:xlink="http://www.w3.org/1999/xlink" width="128" height="128"><defs><style type="text/css"></style></defs><path d="M895.296352 296.29985h-762.498751c-19.958021 0-35.822089 15.864068-35.822089 35.822089v2.558721l44.521739 639.168415c2.046977 28.145927 25.587206 50.150925 53.733134 50.150925h635.586207c28.145927 0 51.686157-22.004998 53.733133-50.150925l44.009995-639.168415c1.535232-19.958021-13.305347-36.845577-33.263368-38.38081zM324.701649 786.550725l-1.023488 6.140929L269.433283 690.854573c-3.070465-4.605697-4.605697-10.234883-5.117441-15.864068 0-5.629185 0.511744-10.234883 1.535232-13.305348l2.046977-5.117441c6.652674-12.281859 17.3993-29.681159 32.23988-53.733133l-39.916042-24.563718 123.842079 5.117441 52.197901 107.466267-41.963018-26.098951c-11.258371 12.793603-22.004998 27.122439-32.23988 41.451275-9.211394 13.817091-16.375812 25.587206-20.98151 35.822089-4.605697 9.723138-8.187906 18.934533-11.258371 27.122438-2.558721 7.676162-4.605697 13.305347-5.117441 17.399301z m166.316842 68.573713l-0.511744 6.140929-120.25987-8.187906c-6.652674-0.511744-13.305347-3.582209-19.446277-9.211394-6.14093-5.629185-10.234883-11.770115-13.305348-18.934533-2.046977-5.117441-3.582209-10.234883-4.093953-15.864068-0.511744-5.117441 0-11.770115 1.023489-18.422788 1.535232-7.164418 2.558721-12.281859 3.070464-15.864068 1.023488-3.070465 3.070465-9.723138 6.14093-18.422789 3.070465-8.69965 5.117441-13.817091 5.629185-15.352324 15.352324 2.558721 63.968016 5.117441 145.847077 8.187906l-4.093953 105.931035z m-54.244878-264.571714L345.683158 537.331334l-5.629185-3.070464L404.533733 432.423788c3.582209-6.14093 9.723138-10.234883 16.887556-12.793603 7.676162-2.558721 15.352324-3.582209 23.028486-3.070465 4.605697 0.511744 9.211394 1.535232 13.817092 3.070465 4.605697 2.046977 8.69965 3.582209 12.281859 6.140929 3.070465 2.046977 7.164418 5.117441 11.770115 9.723139 3.582209 3.070465 6.652674 6.14093 10.234882 9.723138 2.046977 2.558721 5.629185 6.14093 10.234883 11.258371 4.605697 5.629185 8.187906 9.211394 9.723138 10.234883-9.211394 11.770115-34.286857 53.221389-75.738131 123.842079z m101.837082-95.696152c-8.187906-14.84058-14.84058-26.610695-21.493254-35.310345-6.652674-8.69965-12.793603-16.375812-18.422788-23.028486-5.629185-6.14093-10.234883-10.746627-13.305348-13.305347l-4.605697-3.582209h116.165917c6.14093-0.511744 11.258371 0.511744 16.375812 3.070465s8.69965 5.117441 11.258371 8.187906l3.070465 4.605697c7.164418 12.281859 17.911044 30.192904 31.728136 54.756622l40.427786-24.051974-62.944528 106.442778-119.748126-5.629185 43.498251-24.563718c-7.164418-17.3993-14.328836-33.263368-22.004997-47.592204z m144.311844 338.262868c-2.046977 5.629185-5.629185 9.723138-10.234883 13.305348-4.605697 3.070465-8.69965 5.117441-12.793603 5.629185l-5.117441 1.023488c-13.305347 1.535232-34.286857 2.558721-62.944528 3.070465l2.046976 47.08046-66.014992-104.907546 60.897551-103.372314 2.046977 49.127436c32.23988 3.070465 59.362319 3.582209 80.855572 1.535232 21.493253-2.046977 37.869065-5.117441 48.615692-9.723138l16.375812-6.14093-53.733133 103.372314z m81.367316-153.523238c-1.023488 7.676162-3.582209 14.328836-8.187906 20.981509-2.558721 4.093953-5.629185 7.164418-9.723138 10.746627-3.582209 3.070465-7.164418 5.629185-10.746627 8.187906-3.070465 2.046977-8.187906 4.093953-13.817092 6.140929-5.629185 2.046977-10.234883 3.582209-13.305347 4.605698-3.070465 1.023488-8.187906 2.046977-14.84058 4.093953-6.652674 1.535232-11.258371 3.070465-13.305347 3.070464-6.652674-13.817091-31.728136-55.268366-75.738131-124.353823l89.555223-55.78011 5.629185-3.070464 60.897551 103.372313c3.070465 7.164418 4.605697 14.328836 3.582209 22.004998zM973.593203 170.410795l-260.989505-50.150925c-11.770115-2.046977-20.981509-10.746627-24.051974-22.516742l-17.3993-70.620689c-4.093953-15.864068-18.422789-27.122439-34.798601-27.122439h-250.754623c-16.375812 0-31.216392 11.258371-34.7986 27.634183l-16.375812 70.108945c-3.070465 11.770115-11.770115 20.469765-23.54023 22.516742l-260.989506 50.150925c-18.422789 3.582209-32.23988 19.446277-32.23988 38.380809 0 17.911044 14.84058 32.751624 32.751625 32.23988H972.569715c17.911044 0 32.751624-14.84058 32.751624-32.751624 0.511744-17.911044-12.793603-34.286857-31.728136-37.869065z" p-id="4075"></path></svg>