<?xml version="1.0" standalone="no"?><!DOCTYPE svg PUBLIC "-//W3C//DTD SVG 1.1//EN" "http://www.w3.org/Graphics/SVG/1.1/DTD/svg11.dtd"><svg t="1582374277491" class="icon" viewBox="0 0 1024 1024" version="1.1" xmlns="http://www.w3.org/2000/svg" p-id="2295" xmlns:xlink="http://www.w3.org/1999/xlink" width="128" height="128"><defs><style type="text/css"></style></defs><path d="M507.264 607.36a75.52 75.52 0 0 1-34.432-8.064L42.496 383.552a78.528 78.528 0 0 1-42.432-68.864c0.128-29.056 16.512-55.68 42.432-68.864L472.832 30.08c21.76-10.304 47.04-10.304 68.864 0l430.336 215.744c26.368 12.736 42.88 39.616 42.432 68.864-0.128 29.056-16.512 55.68-42.432 68.864L541.696 599.296a75.52 75.52 0 0 1-34.432 8.064zM95.296 315.84l412.032 206.592 412.032-206.592-415.424-207.744-408.64 207.744z" p-id="2296"></path><path d="M506.112 810.496l-480-235.264a42.112 42.112 0 1 1 36.736-75.776l443.008 215.744 441.6-216.896a42.112 42.112 0 0 1 36.736 75.776l-478.08 236.416z" p-id="2297"></path><path d="M506.112 999.872l-480-235.264a42.112 42.112 0 1 1 36.736-75.712l443.008 215.744 441.6-216.896a42.112 42.112 0 1 1 36.736 75.712l-478.08 236.416z" p-id="2298"></path></svg>